<?xml version="1.0" encoding="utf-8"?>
<!-- Generator: Adobe Illustrator 16.0.0, SVG Export Plug-In . SVG Version: 6.00 Build 0)  -->
<!DOCTYPE svg PUBLIC "-//W3C//DTD SVG 1.1//EN" "http://www.w3.org/Graphics/SVG/1.1/DTD/svg11.dtd">
<svg version="1.1" id="Layer_1" xmlns="http://www.w3.org/2000/svg" xmlns:xlink="http://www.w3.org/1999/xlink" x="0px" y="0px"
	 width="154px" height="44.829px" viewBox="0 0 154 44.829" enable-background="new 0 0 154 44.829" xml:space="preserve">
<g>
	<g>
		<path fill="#565454" d="M4.996,21.271c-0.009-0.725,0.152-1.352,0.485-1.887c0.331-0.539,0.894-0.961,1.683-1.256
			c0.786-0.304,1.854-0.458,3.206-0.458c1.332,0,2.4,0.154,3.187,0.458c0.789,0.294,1.353,0.717,1.692,1.256
			c0.343,0.535,0.504,1.162,0.494,1.887v3.385H4.996V21.271L4.996,21.271z M20.523,20.95c0.009-1.111-0.171-2.114-0.52-3.009
			c-0.356-0.904-0.93-1.676-1.719-2.33c-0.79-0.644-1.836-1.146-3.135-1.495c-1.296-0.347-2.892-0.526-4.78-0.526
			C7.845,13.6,5.812,13.911,4.29,14.519c-1.524,0.61-2.623,1.461-3.296,2.562c-0.673,1.103-1.002,2.392-0.993,3.87v12.786
			c-0.019,1.476,0.304,2.766,0.965,3.868c0.655,1.102,1.739,1.95,3.242,2.561c1.504,0.607,3.527,0.92,6.053,0.93
			c2.525-0.01,4.55-0.322,6.052-0.93c1.506-0.61,2.589-1.459,3.243-2.561c0.663-1.103,0.983-2.393,0.966-3.868v-0.915
			c0-0.349-0.081-0.608-0.252-0.769c-0.159-0.17-0.418-0.252-0.77-0.252h-2.738c-0.368,0-0.637,0.082-0.79,0.252
			c-0.162,0.16-0.232,0.42-0.232,0.769v0.592c0.018,0.734-0.134,1.378-0.439,1.917c-0.303,0.535-0.85,0.947-1.627,1.234
			c-0.781,0.295-1.881,0.448-3.305,0.448c-1.416,0-2.516-0.153-3.303-0.448c-0.781-0.287-1.328-0.699-1.63-1.234
			c-0.306-0.539-0.458-1.183-0.44-1.917V28.47h14.614c0.321,0,0.556-0.081,0.698-0.24c0.143-0.161,0.215-0.404,0.215-0.727V20.95z"
			/>
	</g>
	<path fill="#65A644" d="M89.16,21.271c-0.008-0.725,0.154-1.352,0.483-1.887c0.332-0.539,0.896-0.961,1.683-1.256
		c0.791-0.304,1.854-0.458,3.208-0.458c1.334,0,2.401,0.154,3.188,0.458c0.787,0.294,1.351,0.717,1.692,1.256
		c0.341,0.535,0.5,1.162,0.49,1.887v3.385H89.16V21.271L89.16,21.271z M104.685,20.95c0.013-1.111-0.169-2.114-0.519-3.009
		c-0.358-0.904-0.93-1.676-1.718-2.33c-0.788-0.644-1.836-1.146-3.135-1.495c-1.297-0.347-2.892-0.526-4.78-0.526
		c-2.527,0.009-4.559,0.321-6.082,0.928c-1.521,0.61-2.623,1.461-3.294,2.562c-0.672,1.103-1.002,2.392-0.994,3.87v12.786
		c-0.018,1.476,0.306,2.766,0.97,3.868c0.652,1.102,1.737,1.95,3.241,2.561c1.503,0.607,3.526,0.92,6.05,0.93
		c2.527-0.01,4.549-0.322,6.056-0.93c1.502-0.61,2.586-1.459,3.239-2.561c0.663-1.103,0.986-2.393,0.966-3.868v-0.915
		c0-0.349-0.078-0.608-0.248-0.769c-0.162-0.17-0.422-0.252-0.772-0.252h-2.739c-0.367,0-0.637,0.082-0.786,0.252
		c-0.163,0.16-0.235,0.42-0.235,0.769v0.592c0.021,0.734-0.133,1.378-0.438,1.917c-0.305,0.535-0.851,0.947-1.628,1.234
		c-0.779,0.295-1.881,0.448-3.304,0.448c-1.416,0-2.516-0.153-3.305-0.448c-0.778-0.287-1.324-0.699-1.63-1.234
		c-0.302-0.539-0.455-1.183-0.438-1.917V28.47h14.612c0.323,0,0.555-0.081,0.7-0.24c0.144-0.161,0.213-0.404,0.213-0.727V20.95
		L104.685,20.95z M73.479,14.125V8.699c0-0.375-0.071-0.644-0.224-0.824c-0.152-0.168-0.393-0.248-0.742-0.248h-3.17
		c-0.351,0-0.61,0.08-0.772,0.248c-0.168,0.18-0.248,0.449-0.248,0.824v5.427h-0.326l-2.631,0.216
		c-0.368,0.017-0.635,0.107-0.786,0.269c-0.163,0.152-0.234,0.402-0.234,0.752v1.879c0,0.376,0.071,0.645,0.234,0.813
		c0.151,0.182,0.418,0.26,0.786,0.26h2.957v14.989c-0.009,1.184,0.151,2.231,0.473,3.144c0.322,0.911,0.851,1.684,1.602,2.309
		c0.745,0.629,1.756,1.102,3.03,1.426c1.261,0.321,2.837,0.482,4.724,0.482h1.773c0.35,0,0.61-0.071,0.772-0.234
		c0.168-0.15,0.249-0.418,0.249-0.786v-2.257c0-0.375-0.081-0.645-0.249-0.815c-0.162-0.179-0.422-0.259-0.772-0.259h-1.021
		c-1.334,0-2.4-0.142-3.195-0.421c-0.799-0.277-1.371-0.673-1.72-1.2c-0.349-0.528-0.518-1.173-0.51-1.926V18.315h5.533
		c0.349,0,0.609-0.078,0.771-0.26c0.17-0.168,0.251-0.437,0.251-0.813v-2.149c0-0.349-0.081-0.592-0.251-0.743
		c-0.161-0.152-0.422-0.225-0.771-0.225H73.479L73.479,14.125z M60.537,4.188c0-0.375-0.071-0.646-0.225-0.824
		c-0.151-0.17-0.394-0.252-0.743-0.252h-3.114c-0.368,0-0.638,0.082-0.79,0.252c-0.16,0.178-0.231,0.449-0.231,0.824v4.836
		c0,0.348,0.072,0.599,0.231,0.77c0.152,0.17,0.422,0.251,0.79,0.251h3.114c0.349,0,0.592-0.081,0.743-0.251
		c0.154-0.171,0.225-0.422,0.225-0.77V4.188L60.537,4.188z M60.537,15.093c0-0.376-0.071-0.644-0.225-0.824
		c-0.151-0.17-0.394-0.25-0.743-0.25h-3.114c-0.368,0-0.638,0.08-0.79,0.25c-0.16,0.18-0.231,0.448-0.231,0.824v24.498
		c0,0.375,0.072,0.644,0.231,0.815c0.152,0.177,0.422,0.259,0.79,0.259h3.114c0.349,0,0.592-0.082,0.743-0.259
		c0.154-0.172,0.225-0.44,0.225-0.815V15.093L60.537,15.093z M44.262,14.342c-0.009,0.35,0.064,0.599,0.208,0.77
		c0.134,0.17,0.394,0.251,0.761,0.251h3.17c0.348,0,0.59-0.082,0.743-0.251c0.15-0.171,0.224-0.42,0.224-0.77v-2.365
		c0.008-1.111-0.188-2.158-0.59-3.15c-0.405-0.995-1.051-1.874-1.953-2.642c-0.905-0.762-2.105-1.369-3.601-1.809
		c-1.495-0.441-3.333-0.664-5.516-0.672c-2.184,0.008-4.011,0.231-5.497,0.672c-1.488,0.44-2.676,1.047-3.563,1.809
		c-0.89,0.769-1.523,1.647-1.919,2.642c-0.394,0.992-0.582,2.039-0.573,3.15v3.062c0.009,0.832,0.142,1.602,0.413,2.32
		c0.276,0.707,0.635,1.35,1.093,1.914c0.456,0.574,0.967,1.058,1.532,1.47c0.563,0.413,1.145,0.724,1.743,0.959l9.083,3.491
		c0.526,0.197,1.063,0.41,1.594,0.653c0.527,0.234,1.012,0.519,1.451,0.841c0.436,0.333,0.795,0.734,1.055,1.201
		c0.271,0.475,0.403,1.037,0.412,1.709v2.525c0.017,1.46-0.538,2.588-1.649,3.377c-1.117,0.786-2.871,1.18-5.281,1.189
		c-1.602,0-2.918-0.18-3.93-0.536c-1.012-0.358-1.765-0.878-2.238-1.559c-0.477-0.681-0.718-1.504-0.71-2.472v-2.419
		c0-0.375-0.071-0.645-0.222-0.821c-0.154-0.171-0.393-0.252-0.744-0.252h-3.17c-0.347,0-0.609,0.081-0.77,0.252
		c-0.169,0.177-0.25,0.446-0.25,0.821v3.117c-0.009,1.112,0.206,2.158,0.627,3.153c0.429,0.992,1.112,1.871,2.051,2.632
		c0.949,0.77,2.193,1.379,3.733,1.817c1.547,0.438,3.438,0.661,5.675,0.671c2.237-0.01,4.129-0.232,5.668-0.671
		c1.541-0.438,2.775-1.048,3.716-1.817c0.933-0.761,1.611-1.64,2.033-2.632c0.42-0.995,0.627-2.041,0.619-3.153v-4.458
		c-0.009-1.315-0.288-2.445-0.815-3.384c-0.529-0.941-1.245-1.729-2.13-2.366c-0.889-0.633-1.872-1.155-2.963-1.557l-9.778-3.708
		c-0.385-0.135-0.797-0.321-1.21-0.571c-0.42-0.252-0.778-0.619-1.073-1.094c-0.285-0.474-0.448-1.118-0.456-1.934v-1.074
		c-0.009-0.969,0.205-1.799,0.635-2.472c0.428-0.68,1.119-1.2,2.077-1.557c0.957-0.358,2.221-0.539,3.787-0.539
		c1.567,0,2.831,0.18,3.787,0.539c0.959,0.357,1.649,0.877,2.08,1.557c0.428,0.673,0.645,1.503,0.633,2.472V14.342L44.262,14.342z"
		/>
	<path fill-rule="evenodd" clip-rule="evenodd" fill="#65A644" d="M123.745,36.187C146.91,35.265,155.757,22.237,153.715,0
		C143.927,14.832,116,6.939,120.57,33.904c7.403-6.935,13.493-11.69,21.265-17.957c-8.398,8.38-17.563,15.888-23.74,26.787
		c-2.005-0.305-3.054-0.797-3.202-1.645c-1.313,1.618-0.84,2.743,3.818,3.739C120.177,41.741,121.885,38.887,123.745,36.187z"/>
</g>
</svg>
